<svg xmlns="http://www.w3.org/2000/svg" viewBox="0 0 48 48" width="48" height="48">
  <!-- Long sword blade -->
  <polygon points="24,2 27,22 24,20 21,22" fill="#B0B8C8"/>
  <polygon points="24,2 27,22 26,12" fill="#D0D8E0"/>
  <!-- Crossguard -->
  <rect x="16" y="22" width="16" height="3" fill="#C4A84A"/>
  <!-- Upper hand -->
  <rect x="15" y="26" width="18" height="9" rx="3" fill="#D4A574"/>
  <rect x="15" y="25" width="5" height="7" rx="2" fill="#C89660"/>
  <rect x="21" y="24" width="5" height="8" rx="2" fill="#C89660"/>
  <rect x="27" y="25" width="5" height="7" rx="2" fill="#C89660"/>
  <!-- Lower hand -->
  <rect x="15" y="36" width="18" height="9" rx="3" fill="#D4A574"/>
  <rect x="15" y="35" width="5" height="7" rx="2" fill="#C89660"/>
  <rect x="21" y="34" width="5" height="8" rx="2" fill="#C89660"/>
  <rect x="27" y="35" width="5" height="7" rx="2" fill="#C89660"/>
</svg>
