<svg xmlns="http://www.w3.org/2000/svg" viewBox="0 0 48 48" width="48" height="48">
  <!-- Stem -->
  <rect x="22" y="28" width="4" height="16" fill="#4A8A2A"/>
  <!-- Leaf -->
  <polygon points="22,38 14,34 18,40" fill="#4A8A2A"/>
  <!-- Flower center -->
  <circle cx="24" cy="22" r="5" fill="#EECC00"/>
  <!-- Petals -->
  <ellipse cx="24" cy="13" rx="3" ry="5" fill="#FFD700"/>
  <ellipse cx="24" cy="31" rx="3" ry="5" fill="#FFD700"/>
  <ellipse cx="15" cy="22" rx="5" ry="3" fill="#FFD700"/>
  <ellipse cx="33" cy="22" rx="5" ry="3" fill="#FFD700"/>
  <ellipse cx="17" cy="15" rx="3" ry="5" fill="#FFD700" transform="rotate(-45 17 15)"/>
  <ellipse cx="31" cy="15" rx="3" ry="5" fill="#FFD700" transform="rotate(45 31 15)"/>
  <ellipse cx="17" cy="29" rx="3" ry="5" fill="#FFD700" transform="rotate(45 17 29)"/>
  <ellipse cx="31" cy="29" rx="3" ry="5" fill="#FFD700" transform="rotate(-45 31 29)"/>
  <!-- Center dot -->
  <circle cx="24" cy="22" r="3" fill="#EECC00"/>
</svg>
