<svg xmlns="http://www.w3.org/2000/svg" viewBox="0 0 48 48" width="48" height="48">
  <!-- Bone-fragment leg armor -->
  <rect x="8" y="4" width="14" height="28" rx="2" fill="#6B4226"/>
  <rect x="26" y="4" width="14" height="28" rx="2" fill="#6B4226"/>
  <!-- Waistband with bone -->
  <rect x="8" y="4" width="32" height="5" fill="#8B5A3A"/>
  <rect x="16" y="5" width="16" height="3" fill="#C8C0A8"/>
  <!-- Bone fragments -->
  <rect x="10" y="12" width="10" height="3" rx="1" fill="#C8C0A8"/>
  <rect x="28" y="12" width="10" height="3" rx="1" fill="#C8C0A8"/>
  <rect x="11" y="20" width="8" height="3" rx="1" fill="#D8D0B8"/>
  <rect x="29" y="20" width="8" height="3" rx="1" fill="#D8D0B8"/>
  <!-- Green accents -->
  <rect x="14" y="16" width="2" height="2" fill="#5A8A3A"/>
  <rect x="32" y="16" width="2" height="2" fill="#5A8A3A"/>
  <!-- Boots -->
  <rect x="6" y="32" width="16" height="14" rx="2" fill="#6B4226"/>
  <rect x="26" y="32" width="16" height="14" rx="2" fill="#6B4226"/>
  <rect x="8" y="34" width="12" height="3" rx="1" fill="#C8C0A8"/>
  <rect x="28" y="34" width="12" height="3" rx="1" fill="#C8C0A8"/>
</svg>
